# xmcd CD database file
#
# Track frame offsets:
#	150
#	14568
#	27738
#	40670
#	52878
#	65755
#	80535
#	94203
#	107200
#	120698
#	133100
#	146658
#	160250
#	175275
#	188828
#	202185
#	215300
#
# Disc length: 3044 seconds
#
# Revision: 3
# Processed by: cddbd v1.5.1PL0 Copyright (c) Steve Scherf et al.
# Submitted via: CDex 1.51
#
DISCID=000be211
DTITLE=Memphis Archives - Memphis Country Blues Vol 1
DYEAR=1994
DGENRE=Blues
TTITLE0=Memphis Minnie - Ain't No Use You Trying to Tell on Me (I Got Something On You)
TTITLE1=Cannon's Jug Stompers - Walk Right In
TTITLE2=Robert Wilkins - Old Jim Cannan
TTITLE3=Will Batts - Highway 61 Blues
TTITLE4=Noah Lewis - Devil in the Woodpile
TTITLE5=Will Weldon - Turpentine Blues
TTITLE6=Hambone Willie Newbern - Roll and Tumble Blues
TTITLE7=Hattie Hart - Coldest Stuff in Town
TTITLE8=Jim Jackson and Tampa Red - Jim Jackson's Jamboree
TTITLE9=Memphis Jug Band - Whitewash Station
TTITLE10=Bukka White - New Frisco Train
TTITLE11=Sleepy John Estes - Someday Baby Blues
TTITLE12=Frank Stokes - Tain't Nobody's Bizness
TTITLE13=Bukka White - Shake 'Em On Down
TTITLE14=Mumphis Jug Band - Stealin' Stealin'
TTITLE15=Furry Lewis - Everybody's Blues
TTITLE16=Robert Wilkins - Ain't No Way to Get Along
EXTD=Memphis Archives, MA7001
EXTT0=
EXTT1=
EXTT2=
EXTT3=
EXTT4=
EXTT5=
EXTT6=
EXTT7=
EXTT8=
EXTT9=
EXTT10=
EXTT11=
EXTT12=
EXTT13=
EXTT14=
EXTT15=
EXTT16=
PLAYORDER=
